<mxfile host="Electron" agent="Mozilla/5.0 (Macintosh; Intel Mac OS X 10_15_7) AppleWebKit/537.36 (KHTML, like Gecko) draw.io/26.2.2 Chrome/134.0.6998.178 Electron/35.1.2 Safari/537.36" version="26.2.2">
  <diagram name="第 1 页" id="kBsz2uzyX1KVb1l_C4UE">
    <mxGraphModel dx="2370" dy="1211" grid="0" gridSize="10" guides="1" tooltips="1" connect="1" arrows="1" fold="1" page="0" pageScale="1" pageWidth="827" pageHeight="1169" math="0" shadow="0">
      <root>
        <mxCell id="0" />
        <mxCell id="1" parent="0" />
        <mxCell id="qOz6XZJG_CF5Gvyrpxow-116" value="" style="rounded=1;whiteSpace=wrap;html=1;dashed=1;" vertex="1" parent="1">
          <mxGeometry x="880" y="650" width="280" height="250" as="geometry" />
        </mxCell>
        <mxCell id="qOz6XZJG_CF5Gvyrpxow-114" value="" style="rounded=1;whiteSpace=wrap;html=1;dashed=1;" vertex="1" parent="1">
          <mxGeometry x="980" y="819" width="110" height="60" as="geometry" />
        </mxCell>
        <mxCell id="qOz6XZJG_CF5Gvyrpxow-6" value="" style="rounded=0;whiteSpace=wrap;html=1;" vertex="1" parent="1">
          <mxGeometry x="40" y="130" width="320" height="210" as="geometry" />
        </mxCell>
        <mxCell id="qOz6XZJG_CF5Gvyrpxow-1" value="engine_core" style="rounded=0;whiteSpace=wrap;html=1;" vertex="1" parent="1">
          <mxGeometry x="60" y="215" width="80" height="40" as="geometry" />
        </mxCell>
        <mxCell id="qOz6XZJG_CF5Gvyrpxow-2" value="&lt;font style=&quot;font-size: 20px;&quot;&gt;Elastic in Current vLLM&lt;/font&gt;" style="text;html=1;align=center;verticalAlign=middle;resizable=0;points=[];autosize=1;strokeColor=none;fillColor=none;" vertex="1" parent="1">
          <mxGeometry x="40" y="70" width="230" height="40" as="geometry" />
        </mxCell>
        <mxCell id="qOz6XZJG_CF5Gvyrpxow-3" value="&lt;span style=&quot;text-wrap-mode: wrap;&quot;&gt;self.core_engines&lt;/span&gt;" style="text;html=1;align=center;verticalAlign=middle;resizable=0;points=[];autosize=1;strokeColor=none;fillColor=none;" vertex="1" parent="1">
          <mxGeometry x="60" y="180" width="120" height="30" as="geometry" />
        </mxCell>
        <mxCell id="qOz6XZJG_CF5Gvyrpxow-4" value="engine_core" style="rounded=0;whiteSpace=wrap;html=1;" vertex="1" parent="1">
          <mxGeometry x="140" y="215" width="80" height="40" as="geometry" />
        </mxCell>
        <mxCell id="qOz6XZJG_CF5Gvyrpxow-5" value="engine_core" style="rounded=0;whiteSpace=wrap;html=1;" vertex="1" parent="1">
          <mxGeometry x="220" y="215" width="80" height="40" as="geometry" />
        </mxCell>
        <mxCell id="qOz6XZJG_CF5Gvyrpxow-8" value="DPLBAsyncMPClient" style="text;whiteSpace=wrap;html=1;" vertex="1" parent="1">
          <mxGeometry x="50" y="140" width="120" height="30" as="geometry" />
        </mxCell>
        <mxCell id="qOz6XZJG_CF5Gvyrpxow-9" value="&lt;font&gt;scale_elastic_ep()&lt;/font&gt;" style="rounded=0;whiteSpace=wrap;html=1;fillColor=#fff2cc;strokeColor=#d6b656;" vertex="1" parent="1">
          <mxGeometry x="60" y="280" width="120" height="40" as="geometry" />
        </mxCell>
        <mxCell id="qOz6XZJG_CF5Gvyrpxow-12" value="" style="endArrow=classic;html=1;rounded=0;exitX=0.5;exitY=1;exitDx=0;exitDy=0;" edge="1" parent="1" source="qOz6XZJG_CF5Gvyrpxow-9">
          <mxGeometry width="50" height="50" relative="1" as="geometry">
            <mxPoint x="80" y="320" as="sourcePoint" />
            <mxPoint x="120" y="410" as="targetPoint" />
          </mxGeometry>
        </mxCell>
        <mxCell id="qOz6XZJG_CF5Gvyrpxow-110" style="edgeStyle=orthogonalEdgeStyle;rounded=0;orthogonalLoop=1;jettySize=auto;html=1;entryX=0;entryY=0.5;entryDx=0;entryDy=0;" edge="1" parent="1" source="qOz6XZJG_CF5Gvyrpxow-13" target="qOz6XZJG_CF5Gvyrpxow-23">
          <mxGeometry relative="1" as="geometry">
            <Array as="points">
              <mxPoint x="654" y="430" />
              <mxPoint x="654" y="350" />
            </Array>
          </mxGeometry>
        </mxCell>
        <mxCell id="qOz6XZJG_CF5Gvyrpxow-111" style="edgeStyle=orthogonalEdgeStyle;rounded=0;orthogonalLoop=1;jettySize=auto;html=1;entryX=0;entryY=0.5;entryDx=0;entryDy=0;" edge="1" parent="1" source="qOz6XZJG_CF5Gvyrpxow-13" target="qOz6XZJG_CF5Gvyrpxow-22">
          <mxGeometry relative="1" as="geometry" />
        </mxCell>
        <mxCell id="qOz6XZJG_CF5Gvyrpxow-112" style="edgeStyle=orthogonalEdgeStyle;rounded=0;orthogonalLoop=1;jettySize=auto;html=1;entryX=0;entryY=0.5;entryDx=0;entryDy=0;" edge="1" parent="1" source="qOz6XZJG_CF5Gvyrpxow-13" target="qOz6XZJG_CF5Gvyrpxow-24">
          <mxGeometry relative="1" as="geometry">
            <Array as="points">
              <mxPoint x="654" y="430" />
              <mxPoint x="654" y="510" />
            </Array>
          </mxGeometry>
        </mxCell>
        <mxCell id="qOz6XZJG_CF5Gvyrpxow-13" value="1. Call EngineCoreActor&#39;s reinitialize_distributed() with reconfig_request" style="rounded=0;whiteSpace=wrap;html=1;fillColor=#fff2cc;strokeColor=#d6b656;" vertex="1" parent="1">
          <mxGeometry x="40" y="410" width="320" height="40" as="geometry" />
        </mxCell>
        <mxCell id="qOz6XZJG_CF5Gvyrpxow-105" style="edgeStyle=orthogonalEdgeStyle;rounded=0;orthogonalLoop=1;jettySize=auto;html=1;entryX=1;entryY=0.5;entryDx=0;entryDy=0;" edge="1" parent="1" source="qOz6XZJG_CF5Gvyrpxow-14" target="qOz6XZJG_CF5Gvyrpxow-5">
          <mxGeometry relative="1" as="geometry">
            <Array as="points">
              <mxPoint x="401" y="470" />
              <mxPoint x="401" y="235" />
            </Array>
          </mxGeometry>
        </mxCell>
        <mxCell id="qOz6XZJG_CF5Gvyrpxow-14" value="2. core_engines.pop()" style="rounded=0;whiteSpace=wrap;html=1;fillColor=#fff2cc;strokeColor=#d6b656;" vertex="1" parent="1">
          <mxGeometry x="40" y="450" width="320" height="40" as="geometry" />
        </mxCell>
        <mxCell id="qOz6XZJG_CF5Gvyrpxow-15" value="scale_down" style="text;html=1;align=center;verticalAlign=middle;resizable=0;points=[];autosize=1;strokeColor=none;fillColor=none;" vertex="1" parent="1">
          <mxGeometry x="115" y="358" width="90" height="30" as="geometry" />
        </mxCell>
        <mxCell id="qOz6XZJG_CF5Gvyrpxow-32" style="edgeStyle=orthogonalEdgeStyle;rounded=0;orthogonalLoop=1;jettySize=auto;html=1;" edge="1" parent="1" source="qOz6XZJG_CF5Gvyrpxow-16" target="qOz6XZJG_CF5Gvyrpxow-31">
          <mxGeometry relative="1" as="geometry" />
        </mxCell>
        <mxCell id="qOz6XZJG_CF5Gvyrpxow-16" value="3. Actor manager -&amp;gt; scale ray resources" style="rounded=0;whiteSpace=wrap;html=1;fillColor=#fff2cc;strokeColor=#d6b656;" vertex="1" parent="1">
          <mxGeometry x="40" y="490" width="320" height="40" as="geometry" />
        </mxCell>
        <mxCell id="qOz6XZJG_CF5Gvyrpxow-18" value="4. Notify DPCoordinator with ELASTIC message" style="rounded=0;whiteSpace=wrap;html=1;fillColor=#fff2cc;strokeColor=#d6b656;" vertex="1" parent="1">
          <mxGeometry x="40" y="530" width="320" height="40" as="geometry" />
        </mxCell>
        <mxCell id="qOz6XZJG_CF5Gvyrpxow-19" value="5. Update dp_size in vllm_config" style="rounded=0;whiteSpace=wrap;html=1;fillColor=#fff2cc;strokeColor=#d6b656;" vertex="1" parent="1">
          <mxGeometry x="40" y="570" width="320" height="40" as="geometry" />
        </mxCell>
        <mxCell id="qOz6XZJG_CF5Gvyrpxow-22" value="DPEngineCoreActor" style="rounded=0;whiteSpace=wrap;html=1;" vertex="1" parent="1">
          <mxGeometry x="700" y="410" width="140" height="40" as="geometry" />
        </mxCell>
        <mxCell id="qOz6XZJG_CF5Gvyrpxow-79" style="edgeStyle=orthogonalEdgeStyle;rounded=0;orthogonalLoop=1;jettySize=auto;html=1;" edge="1" parent="1" source="qOz6XZJG_CF5Gvyrpxow-23" target="qOz6XZJG_CF5Gvyrpxow-76">
          <mxGeometry relative="1" as="geometry" />
        </mxCell>
        <mxCell id="qOz6XZJG_CF5Gvyrpxow-80" style="edgeStyle=orthogonalEdgeStyle;rounded=0;orthogonalLoop=1;jettySize=auto;html=1;entryX=0;entryY=0.5;entryDx=0;entryDy=0;" edge="1" parent="1" source="qOz6XZJG_CF5Gvyrpxow-23" target="qOz6XZJG_CF5Gvyrpxow-77">
          <mxGeometry relative="1" as="geometry" />
        </mxCell>
        <mxCell id="qOz6XZJG_CF5Gvyrpxow-81" style="edgeStyle=orthogonalEdgeStyle;rounded=0;orthogonalLoop=1;jettySize=auto;html=1;entryX=0;entryY=0.5;entryDx=0;entryDy=0;" edge="1" parent="1" source="qOz6XZJG_CF5Gvyrpxow-23" target="qOz6XZJG_CF5Gvyrpxow-78">
          <mxGeometry relative="1" as="geometry" />
        </mxCell>
        <mxCell id="qOz6XZJG_CF5Gvyrpxow-23" value="DPEngineCoreActor" style="rounded=0;whiteSpace=wrap;html=1;" vertex="1" parent="1">
          <mxGeometry x="700" y="330" width="140" height="40" as="geometry" />
        </mxCell>
        <mxCell id="qOz6XZJG_CF5Gvyrpxow-24" value="DPEngineCoreActor" style="rounded=0;whiteSpace=wrap;html=1;" vertex="1" parent="1">
          <mxGeometry x="700" y="490" width="140" height="40" as="geometry" />
        </mxCell>
        <mxCell id="qOz6XZJG_CF5Gvyrpxow-30" value="reinitialize_distributed()" style="text;html=1;align=center;verticalAlign=middle;resizable=0;points=[];autosize=1;strokeColor=none;fillColor=none;" vertex="1" parent="1">
          <mxGeometry x="700" y="290" width="150" height="30" as="geometry" />
        </mxCell>
        <mxCell id="qOz6XZJG_CF5Gvyrpxow-33" style="edgeStyle=orthogonalEdgeStyle;rounded=0;orthogonalLoop=1;jettySize=auto;html=1;entryX=0.5;entryY=1;entryDx=0;entryDy=0;" edge="1" parent="1" source="qOz6XZJG_CF5Gvyrpxow-31" target="qOz6XZJG_CF5Gvyrpxow-24">
          <mxGeometry relative="1" as="geometry">
            <Array as="points">
              <mxPoint x="520" y="570" />
              <mxPoint x="770" y="570" />
            </Array>
          </mxGeometry>
        </mxCell>
        <mxCell id="qOz6XZJG_CF5Gvyrpxow-34" value="delate" style="edgeLabel;html=1;align=center;verticalAlign=middle;resizable=0;points=[];" vertex="1" connectable="0" parent="qOz6XZJG_CF5Gvyrpxow-33">
          <mxGeometry x="-0.0343" relative="1" as="geometry">
            <mxPoint as="offset" />
          </mxGeometry>
        </mxCell>
        <mxCell id="qOz6XZJG_CF5Gvyrpxow-31" value="CoreEngineActorManager" style="rounded=0;whiteSpace=wrap;html=1;" vertex="1" parent="1">
          <mxGeometry x="440" y="490" width="180" height="40" as="geometry" />
        </mxCell>
        <mxCell id="qOz6XZJG_CF5Gvyrpxow-35" value="" style="verticalLabelPosition=bottom;verticalAlign=top;html=1;shape=mxgraph.basic.x;fillColor=#f8cecc;strokeColor=#b85450;" vertex="1" parent="1">
          <mxGeometry x="760" y="500" width="20" height="20" as="geometry" />
        </mxCell>
        <mxCell id="qOz6XZJG_CF5Gvyrpxow-38" value="&lt;font style=&quot;font-size: 20px;&quot;&gt;Proposed Change&lt;/font&gt;" style="text;html=1;align=center;verticalAlign=middle;resizable=0;points=[];autosize=1;strokeColor=none;fillColor=none;" vertex="1" parent="1">
          <mxGeometry x="40" y="650" width="180" height="40" as="geometry" />
        </mxCell>
        <mxCell id="qOz6XZJG_CF5Gvyrpxow-39" value="" style="rounded=0;whiteSpace=wrap;html=1;" vertex="1" parent="1">
          <mxGeometry x="40" y="730" width="320" height="530" as="geometry" />
        </mxCell>
        <mxCell id="qOz6XZJG_CF5Gvyrpxow-40" value="engine_core" style="rounded=0;whiteSpace=wrap;html=1;" vertex="1" parent="1">
          <mxGeometry x="60" y="815" width="80" height="40" as="geometry" />
        </mxCell>
        <mxCell id="qOz6XZJG_CF5Gvyrpxow-41" value="&lt;span style=&quot;text-wrap-mode: wrap;&quot;&gt;self.core_engines&lt;/span&gt;" style="text;html=1;align=center;verticalAlign=middle;resizable=0;points=[];autosize=1;strokeColor=none;fillColor=none;" vertex="1" parent="1">
          <mxGeometry x="107.5" y="775" width="120" height="30" as="geometry" />
        </mxCell>
        <mxCell id="qOz6XZJG_CF5Gvyrpxow-42" value="engine_core" style="rounded=0;whiteSpace=wrap;html=1;" vertex="1" parent="1">
          <mxGeometry x="140" y="815" width="80" height="40" as="geometry" />
        </mxCell>
        <mxCell id="qOz6XZJG_CF5Gvyrpxow-43" value="engine_core" style="rounded=0;whiteSpace=wrap;html=1;" vertex="1" parent="1">
          <mxGeometry x="220" y="815" width="80" height="40" as="geometry" />
        </mxCell>
        <mxCell id="qOz6XZJG_CF5Gvyrpxow-44" value="DPLBAsyncMPClient" style="text;whiteSpace=wrap;html=1;" vertex="1" parent="1">
          <mxGeometry x="50" y="740" width="120" height="30" as="geometry" />
        </mxCell>
        <mxCell id="qOz6XZJG_CF5Gvyrpxow-45" value="" style="rounded=0;whiteSpace=wrap;html=1;fillColor=#d5e8d4;strokeColor=#82b366;" vertex="1" parent="1">
          <mxGeometry x="60" y="890" width="270" height="360" as="geometry" />
        </mxCell>
        <mxCell id="qOz6XZJG_CF5Gvyrpxow-46" value="&lt;span id=&quot;docs-internal-guid-2307d6d0-7fff-778c-f604-50ef679a97c2&quot;&gt;&lt;span style=&quot;font-size: 10pt; font-family: Arial, sans-serif; background-color: transparent; font-weight: 700; font-variant-numeric: normal; font-variant-east-asian: normal; font-variant-alternates: normal; font-variant-position: normal; font-variant-emoji: normal; vertical-align: baseline; white-space: pre-wrap;&quot;&gt;ElasticController&lt;/span&gt;&lt;/span&gt;" style="text;html=1;align=center;verticalAlign=middle;resizable=0;points=[];autosize=1;strokeColor=none;fillColor=none;" vertex="1" parent="1">
          <mxGeometry x="60" y="890" width="130" height="30" as="geometry" />
        </mxCell>
        <mxCell id="qOz6XZJG_CF5Gvyrpxow-48" value="" style="rounded=0;whiteSpace=wrap;html=1;" vertex="1" parent="1">
          <mxGeometry x="90" y="1070" width="220" height="160" as="geometry" />
        </mxCell>
        <mxCell id="qOz6XZJG_CF5Gvyrpxow-47" value="&lt;span id=&quot;docs-internal-guid-40be71fb-7fff-3daf-c93f-61b378e12a4b&quot;&gt;&lt;span style=&quot;font-size: 10pt; font-family: Arial, sans-serif; background-color: transparent; font-weight: 700; font-variant-numeric: normal; font-variant-east-asian: normal; font-variant-alternates: normal; font-variant-position: normal; font-variant-emoji: normal; vertical-align: baseline; white-space: pre-wrap;&quot;&gt;GlobalActorManager&lt;/span&gt;&lt;/span&gt;" style="text;html=1;align=center;verticalAlign=middle;resizable=0;points=[];autosize=1;strokeColor=none;fillColor=none;" vertex="1" parent="1">
          <mxGeometry x="90" y="1070" width="150" height="30" as="geometry" />
        </mxCell>
        <mxCell id="qOz6XZJG_CF5Gvyrpxow-59" style="edgeStyle=orthogonalEdgeStyle;rounded=0;orthogonalLoop=1;jettySize=auto;html=1;entryX=0;entryY=0.5;entryDx=0;entryDy=0;" edge="1" parent="1" source="qOz6XZJG_CF5Gvyrpxow-49" target="qOz6XZJG_CF5Gvyrpxow-55">
          <mxGeometry relative="1" as="geometry">
            <Array as="points">
              <mxPoint x="480" y="1130" />
              <mxPoint x="480" y="790" />
            </Array>
          </mxGeometry>
        </mxCell>
        <mxCell id="qOz6XZJG_CF5Gvyrpxow-61" style="edgeStyle=orthogonalEdgeStyle;rounded=0;orthogonalLoop=1;jettySize=auto;html=1;entryX=0;entryY=0.5;entryDx=0;entryDy=0;" edge="1" parent="1" source="qOz6XZJG_CF5Gvyrpxow-49" target="qOz6XZJG_CF5Gvyrpxow-56">
          <mxGeometry relative="1" as="geometry">
            <Array as="points">
              <mxPoint x="480" y="1130" />
              <mxPoint x="480" y="950" />
            </Array>
          </mxGeometry>
        </mxCell>
        <mxCell id="qOz6XZJG_CF5Gvyrpxow-101" value="delete" style="edgeLabel;html=1;align=center;verticalAlign=middle;resizable=0;points=[];" vertex="1" connectable="0" parent="qOz6XZJG_CF5Gvyrpxow-61">
          <mxGeometry x="0.7173" y="-3" relative="1" as="geometry">
            <mxPoint x="-21" y="-3" as="offset" />
          </mxGeometry>
        </mxCell>
        <mxCell id="qOz6XZJG_CF5Gvyrpxow-119" style="edgeStyle=orthogonalEdgeStyle;rounded=0;orthogonalLoop=1;jettySize=auto;html=1;entryX=0;entryY=0.5;entryDx=0;entryDy=0;" edge="1" parent="1" source="qOz6XZJG_CF5Gvyrpxow-49" target="qOz6XZJG_CF5Gvyrpxow-118">
          <mxGeometry relative="1" as="geometry">
            <Array as="points">
              <mxPoint x="480" y="1130" />
              <mxPoint x="480" y="870" />
            </Array>
          </mxGeometry>
        </mxCell>
        <mxCell id="qOz6XZJG_CF5Gvyrpxow-49" value="CoreEngineActorManager" style="rounded=0;whiteSpace=wrap;html=1;fillColor=#fff2cc;strokeColor=#d6b656;" vertex="1" parent="1">
          <mxGeometry x="105" y="1110" width="180" height="40" as="geometry" />
        </mxCell>
        <mxCell id="qOz6XZJG_CF5Gvyrpxow-67" style="edgeStyle=orthogonalEdgeStyle;rounded=0;orthogonalLoop=1;jettySize=auto;html=1;entryX=0;entryY=0.5;entryDx=0;entryDy=0;" edge="1" parent="1" source="qOz6XZJG_CF5Gvyrpxow-50" target="qOz6XZJG_CF5Gvyrpxow-62">
          <mxGeometry relative="1" as="geometry">
            <Array as="points">
              <mxPoint x="560" y="1190" />
              <mxPoint x="560" y="1069" />
            </Array>
          </mxGeometry>
        </mxCell>
        <mxCell id="qOz6XZJG_CF5Gvyrpxow-68" style="edgeStyle=orthogonalEdgeStyle;rounded=0;orthogonalLoop=1;jettySize=auto;html=1;exitX=1;exitY=0.5;exitDx=0;exitDy=0;" edge="1" parent="1" source="qOz6XZJG_CF5Gvyrpxow-50" target="qOz6XZJG_CF5Gvyrpxow-65">
          <mxGeometry relative="1" as="geometry">
            <Array as="points">
              <mxPoint x="560" y="1190" />
              <mxPoint x="560" y="1150" />
            </Array>
          </mxGeometry>
        </mxCell>
        <mxCell id="qOz6XZJG_CF5Gvyrpxow-69" style="edgeStyle=orthogonalEdgeStyle;rounded=0;orthogonalLoop=1;jettySize=auto;html=1;entryX=0;entryY=0.5;entryDx=0;entryDy=0;" edge="1" parent="1" source="qOz6XZJG_CF5Gvyrpxow-50" target="qOz6XZJG_CF5Gvyrpxow-66">
          <mxGeometry relative="1" as="geometry">
            <Array as="points">
              <mxPoint x="560" y="1190" />
              <mxPoint x="560" y="1230" />
            </Array>
          </mxGeometry>
        </mxCell>
        <mxCell id="qOz6XZJG_CF5Gvyrpxow-102" value="delete" style="edgeLabel;html=1;align=center;verticalAlign=middle;resizable=0;points=[];" vertex="1" connectable="0" parent="qOz6XZJG_CF5Gvyrpxow-69">
          <mxGeometry x="0.7281" relative="1" as="geometry">
            <mxPoint as="offset" />
          </mxGeometry>
        </mxCell>
        <mxCell id="qOz6XZJG_CF5Gvyrpxow-50" value="FFNExecutorActorManager" style="rounded=0;whiteSpace=wrap;html=1;fillColor=#fff2cc;strokeColor=#d6b656;" vertex="1" parent="1">
          <mxGeometry x="105" y="1170" width="180" height="40" as="geometry" />
        </mxCell>
        <mxCell id="qOz6XZJG_CF5Gvyrpxow-71" style="edgeStyle=orthogonalEdgeStyle;rounded=0;orthogonalLoop=1;jettySize=auto;html=1;entryX=0;entryY=0.5;entryDx=0;entryDy=0;fillColor=#fff2cc;strokeColor=#000000;" edge="1" parent="1" source="qOz6XZJG_CF5Gvyrpxow-51" target="qOz6XZJG_CF5Gvyrpxow-49">
          <mxGeometry relative="1" as="geometry">
            <mxPoint x="195" y="1099" as="targetPoint" />
            <Array as="points">
              <mxPoint x="167" y="1050" />
              <mxPoint x="70" y="1050" />
              <mxPoint x="70" y="1130" />
            </Array>
          </mxGeometry>
        </mxCell>
        <mxCell id="qOz6XZJG_CF5Gvyrpxow-72" style="edgeStyle=orthogonalEdgeStyle;rounded=0;orthogonalLoop=1;jettySize=auto;html=1;entryX=0;entryY=0.5;entryDx=0;entryDy=0;exitX=0.5;exitY=1;exitDx=0;exitDy=0;fillColor=#fff2cc;strokeColor=#000000;" edge="1" parent="1" source="qOz6XZJG_CF5Gvyrpxow-51" target="qOz6XZJG_CF5Gvyrpxow-50">
          <mxGeometry relative="1" as="geometry">
            <Array as="points">
              <mxPoint x="145" y="1050" />
              <mxPoint x="70" y="1050" />
              <mxPoint x="70" y="1179" />
            </Array>
          </mxGeometry>
        </mxCell>
        <mxCell id="qOz6XZJG_CF5Gvyrpxow-106" style="edgeStyle=orthogonalEdgeStyle;rounded=0;orthogonalLoop=1;jettySize=auto;html=1;exitX=1;exitY=0.5;exitDx=0;exitDy=0;entryX=1;entryY=0.5;entryDx=0;entryDy=0;" edge="1" parent="1" source="qOz6XZJG_CF5Gvyrpxow-51" target="qOz6XZJG_CF5Gvyrpxow-43">
          <mxGeometry relative="1" as="geometry">
            <Array as="points">
              <mxPoint x="343" y="1015" />
              <mxPoint x="343" y="835" />
            </Array>
          </mxGeometry>
        </mxCell>
        <mxCell id="qOz6XZJG_CF5Gvyrpxow-51" value="&lt;font&gt;elastic_methods()&lt;/font&gt;" style="rounded=0;whiteSpace=wrap;html=1;fillColor=#fff2cc;strokeColor=#d6b656;" vertex="1" parent="1">
          <mxGeometry x="85" y="995" width="165" height="40" as="geometry" />
        </mxCell>
        <mxCell id="qOz6XZJG_CF5Gvyrpxow-73" style="edgeStyle=orthogonalEdgeStyle;rounded=0;orthogonalLoop=1;jettySize=auto;html=1;entryX=0.5;entryY=0;entryDx=0;entryDy=0;" edge="1" parent="1" source="qOz6XZJG_CF5Gvyrpxow-52" target="qOz6XZJG_CF5Gvyrpxow-51">
          <mxGeometry relative="1" as="geometry" />
        </mxCell>
        <mxCell id="qOz6XZJG_CF5Gvyrpxow-52" value="&lt;font&gt;make_scaling_decision&lt;/font&gt;&lt;span style=&quot;background-color: transparent; color: light-dark(rgb(0, 0, 0), rgb(255, 255, 255));&quot;&gt;()&lt;/span&gt;" style="rounded=0;whiteSpace=wrap;html=1;" vertex="1" parent="1">
          <mxGeometry x="85" y="930" width="165" height="40" as="geometry" />
        </mxCell>
        <mxCell id="qOz6XZJG_CF5Gvyrpxow-53" style="edgeStyle=orthogonalEdgeStyle;rounded=0;orthogonalLoop=1;jettySize=auto;html=1;entryX=0;entryY=0.5;entryDx=0;entryDy=0;strokeColor=#d6b656;fillColor=#fff2cc;" edge="1" parent="1" source="qOz6XZJG_CF5Gvyrpxow-9" target="qOz6XZJG_CF5Gvyrpxow-51">
          <mxGeometry relative="1" as="geometry">
            <Array as="points">
              <mxPoint y="300" />
              <mxPoint y="1015" />
            </Array>
          </mxGeometry>
        </mxCell>
        <mxCell id="qOz6XZJG_CF5Gvyrpxow-91" style="edgeStyle=orthogonalEdgeStyle;rounded=0;orthogonalLoop=1;jettySize=auto;html=1;entryX=0;entryY=0.5;entryDx=0;entryDy=0;" edge="1" parent="1" target="qOz6XZJG_CF5Gvyrpxow-87">
          <mxGeometry relative="1" as="geometry">
            <mxPoint x="790.0000000000002" y="790.4999999999998" as="sourcePoint" />
            <mxPoint x="970" y="791.5" as="targetPoint" />
            <Array as="points">
              <mxPoint x="895" y="791" />
            </Array>
          </mxGeometry>
        </mxCell>
        <mxCell id="qOz6XZJG_CF5Gvyrpxow-92" style="edgeStyle=orthogonalEdgeStyle;rounded=0;orthogonalLoop=1;jettySize=auto;html=1;entryX=0;entryY=0.5;entryDx=0;entryDy=0;" edge="1" parent="1" source="qOz6XZJG_CF5Gvyrpxow-55" target="qOz6XZJG_CF5Gvyrpxow-88">
          <mxGeometry relative="1" as="geometry" />
        </mxCell>
        <mxCell id="qOz6XZJG_CF5Gvyrpxow-93" style="edgeStyle=orthogonalEdgeStyle;rounded=0;orthogonalLoop=1;jettySize=auto;html=1;entryX=0;entryY=0.5;entryDx=0;entryDy=0;" edge="1" parent="1" source="qOz6XZJG_CF5Gvyrpxow-55" target="qOz6XZJG_CF5Gvyrpxow-89">
          <mxGeometry relative="1" as="geometry">
            <Array as="points">
              <mxPoint x="910" y="790" />
              <mxPoint x="910" y="849" />
            </Array>
          </mxGeometry>
        </mxCell>
        <mxCell id="qOz6XZJG_CF5Gvyrpxow-55" value="DPEngineCoreActor" style="rounded=0;whiteSpace=wrap;html=1;" vertex="1" parent="1">
          <mxGeometry x="680" y="770" width="140" height="40" as="geometry" />
        </mxCell>
        <mxCell id="qOz6XZJG_CF5Gvyrpxow-56" value="DPEngineCoreActor" style="rounded=0;whiteSpace=wrap;html=1;" vertex="1" parent="1">
          <mxGeometry x="680" y="930" width="140" height="40" as="geometry" />
        </mxCell>
        <mxCell id="qOz6XZJG_CF5Gvyrpxow-57" value="reinitialize_distributed()" style="text;html=1;align=center;verticalAlign=middle;resizable=0;points=[];autosize=1;strokeColor=none;fillColor=none;" vertex="1" parent="1">
          <mxGeometry x="680" y="730" width="150" height="30" as="geometry" />
        </mxCell>
        <mxCell id="qOz6XZJG_CF5Gvyrpxow-58" value="" style="verticalLabelPosition=bottom;verticalAlign=top;html=1;shape=mxgraph.basic.x;fillColor=#f8cecc;strokeColor=#b85450;" vertex="1" parent="1">
          <mxGeometry x="745" y="940" width="20" height="20" as="geometry" />
        </mxCell>
        <mxCell id="qOz6XZJG_CF5Gvyrpxow-97" style="edgeStyle=orthogonalEdgeStyle;rounded=0;orthogonalLoop=1;jettySize=auto;html=1;entryX=0;entryY=0.5;entryDx=0;entryDy=0;" edge="1" parent="1" source="qOz6XZJG_CF5Gvyrpxow-62" target="qOz6XZJG_CF5Gvyrpxow-95">
          <mxGeometry relative="1" as="geometry" />
        </mxCell>
        <mxCell id="qOz6XZJG_CF5Gvyrpxow-98" style="edgeStyle=orthogonalEdgeStyle;rounded=0;orthogonalLoop=1;jettySize=auto;html=1;" edge="1" parent="1" source="qOz6XZJG_CF5Gvyrpxow-62" target="qOz6XZJG_CF5Gvyrpxow-94">
          <mxGeometry relative="1" as="geometry" />
        </mxCell>
        <mxCell id="qOz6XZJG_CF5Gvyrpxow-99" style="edgeStyle=orthogonalEdgeStyle;rounded=0;orthogonalLoop=1;jettySize=auto;html=1;entryX=0;entryY=0.5;entryDx=0;entryDy=0;" edge="1" parent="1" source="qOz6XZJG_CF5Gvyrpxow-62" target="qOz6XZJG_CF5Gvyrpxow-96">
          <mxGeometry relative="1" as="geometry" />
        </mxCell>
        <mxCell id="qOz6XZJG_CF5Gvyrpxow-62" value="FFNExecutorActor" style="rounded=0;whiteSpace=wrap;html=1;" vertex="1" parent="1">
          <mxGeometry x="680" y="1049" width="140" height="40" as="geometry" />
        </mxCell>
        <mxCell id="qOz6XZJG_CF5Gvyrpxow-65" value="FFNExecutorActor" style="rounded=0;whiteSpace=wrap;html=1;" vertex="1" parent="1">
          <mxGeometry x="680" y="1130" width="140" height="40" as="geometry" />
        </mxCell>
        <mxCell id="qOz6XZJG_CF5Gvyrpxow-66" value="FFNExecutorActor" style="rounded=0;whiteSpace=wrap;html=1;" vertex="1" parent="1">
          <mxGeometry x="680" y="1210" width="140" height="40" as="geometry" />
        </mxCell>
        <mxCell id="qOz6XZJG_CF5Gvyrpxow-70" value="" style="verticalLabelPosition=bottom;verticalAlign=top;html=1;shape=mxgraph.basic.x;fillColor=#f8cecc;strokeColor=#b85450;" vertex="1" parent="1">
          <mxGeometry x="745" y="1220" width="20" height="20" as="geometry" />
        </mxCell>
        <mxCell id="qOz6XZJG_CF5Gvyrpxow-74" value="reinitialize_distributed()" style="text;html=1;align=center;verticalAlign=middle;resizable=0;points=[];autosize=1;strokeColor=none;fillColor=none;" vertex="1" parent="1">
          <mxGeometry x="680" y="1010" width="150" height="30" as="geometry" />
        </mxCell>
        <mxCell id="qOz6XZJG_CF5Gvyrpxow-76" value="Worker" style="rounded=0;whiteSpace=wrap;html=1;" vertex="1" parent="1">
          <mxGeometry x="1000" y="330" width="80" height="40" as="geometry" />
        </mxCell>
        <mxCell id="qOz6XZJG_CF5Gvyrpxow-77" value="Worker" style="rounded=0;whiteSpace=wrap;html=1;" vertex="1" parent="1">
          <mxGeometry x="1000" y="270" width="80" height="40" as="geometry" />
        </mxCell>
        <mxCell id="qOz6XZJG_CF5Gvyrpxow-78" value="Worker" style="rounded=0;whiteSpace=wrap;html=1;" vertex="1" parent="1">
          <mxGeometry x="1000" y="388" width="80" height="40" as="geometry" />
        </mxCell>
        <mxCell id="qOz6XZJG_CF5Gvyrpxow-82" value="reinitialize_distributed()" style="text;html=1;align=center;verticalAlign=middle;resizable=0;points=[];autosize=1;strokeColor=none;fillColor=none;" vertex="1" parent="1">
          <mxGeometry x="965" y="230" width="150" height="30" as="geometry" />
        </mxCell>
        <mxCell id="qOz6XZJG_CF5Gvyrpxow-87" value="Worker" style="rounded=0;whiteSpace=wrap;html=1;" vertex="1" parent="1">
          <mxGeometry x="1000" y="770" width="80" height="40" as="geometry" />
        </mxCell>
        <mxCell id="qOz6XZJG_CF5Gvyrpxow-88" value="Worker" style="rounded=0;whiteSpace=wrap;html=1;" vertex="1" parent="1">
          <mxGeometry x="1000" y="711" width="80" height="40" as="geometry" />
        </mxCell>
        <mxCell id="qOz6XZJG_CF5Gvyrpxow-89" value="Worker" style="rounded=0;whiteSpace=wrap;html=1;" vertex="1" parent="1">
          <mxGeometry x="1000" y="829" width="80" height="40" as="geometry" />
        </mxCell>
        <mxCell id="qOz6XZJG_CF5Gvyrpxow-90" value="reinitialize_distributed()" style="text;html=1;align=center;verticalAlign=middle;resizable=0;points=[];autosize=1;strokeColor=none;fillColor=none;" vertex="1" parent="1">
          <mxGeometry x="965" y="681" width="150" height="30" as="geometry" />
        </mxCell>
        <mxCell id="qOz6XZJG_CF5Gvyrpxow-94" value="Worker" style="rounded=0;whiteSpace=wrap;html=1;" vertex="1" parent="1">
          <mxGeometry x="1000" y="1050" width="80" height="40" as="geometry" />
        </mxCell>
        <mxCell id="qOz6XZJG_CF5Gvyrpxow-95" value="Worker" style="rounded=0;whiteSpace=wrap;html=1;" vertex="1" parent="1">
          <mxGeometry x="1000" y="990" width="80" height="40" as="geometry" />
        </mxCell>
        <mxCell id="qOz6XZJG_CF5Gvyrpxow-96" value="Worker" style="rounded=0;whiteSpace=wrap;html=1;" vertex="1" parent="1">
          <mxGeometry x="1000" y="1108" width="80" height="40" as="geometry" />
        </mxCell>
        <mxCell id="qOz6XZJG_CF5Gvyrpxow-100" value="reinitialize_distributed()" style="text;html=1;align=center;verticalAlign=middle;resizable=0;points=[];autosize=1;strokeColor=none;fillColor=none;" vertex="1" parent="1">
          <mxGeometry x="965" y="950" width="150" height="30" as="geometry" />
        </mxCell>
        <mxCell id="qOz6XZJG_CF5Gvyrpxow-103" value="" style="verticalLabelPosition=bottom;verticalAlign=top;html=1;shape=mxgraph.basic.x;fillColor=#f8cecc;strokeColor=#b85450;" vertex="1" parent="1">
          <mxGeometry x="250" y="225" width="20" height="20" as="geometry" />
        </mxCell>
        <mxCell id="qOz6XZJG_CF5Gvyrpxow-104" value="" style="verticalLabelPosition=bottom;verticalAlign=top;html=1;shape=mxgraph.basic.x;fillColor=#f8cecc;strokeColor=#b85450;" vertex="1" parent="1">
          <mxGeometry x="250" y="825" width="20" height="20" as="geometry" />
        </mxCell>
        <mxCell id="qOz6XZJG_CF5Gvyrpxow-115" value="bundle" style="text;html=1;align=center;verticalAlign=middle;resizable=0;points=[];autosize=1;strokeColor=none;fillColor=none;" vertex="1" parent="1">
          <mxGeometry x="1090" y="834" width="60" height="30" as="geometry" />
        </mxCell>
        <mxCell id="qOz6XZJG_CF5Gvyrpxow-117" value="placement group" style="text;html=1;align=center;verticalAlign=middle;resizable=0;points=[];autosize=1;strokeColor=none;fillColor=none;" vertex="1" parent="1">
          <mxGeometry x="890" y="660" width="110" height="30" as="geometry" />
        </mxCell>
        <mxCell id="qOz6XZJG_CF5Gvyrpxow-118" value="DPEngineCoreActor" style="rounded=0;whiteSpace=wrap;html=1;" vertex="1" parent="1">
          <mxGeometry x="680" y="850" width="140" height="40" as="geometry" />
        </mxCell>
        <mxCell id="qOz6XZJG_CF5Gvyrpxow-120" value="m = dp_size" style="text;html=1;align=center;verticalAlign=middle;resizable=0;points=[];autosize=1;strokeColor=none;fillColor=none;" vertex="1" parent="1">
          <mxGeometry x="380" y="1089" width="90" height="30" as="geometry" />
        </mxCell>
        <mxCell id="qOz6XZJG_CF5Gvyrpxow-121" value="n = ep_size" style="text;html=1;align=center;verticalAlign=middle;resizable=0;points=[];autosize=1;strokeColor=none;fillColor=none;" vertex="1" parent="1">
          <mxGeometry x="380" y="1200" width="90" height="30" as="geometry" />
        </mxCell>
      </root>
    </mxGraphModel>
  </diagram>
</mxfile>
